<svg xmlns="http://www.w3.org/2000/svg" width="131" height="125" fill="none">
  <rect width="131" height="125" fill="#fff" rx="7"/>
  <path fill="#28337C" fill-rule="evenodd" d="M15.0418 42.105c-.6821-.6822-.6821-1.7883 0-2.4705L45.4412 9.23523c.6821-.68218 1.7882-.68218 2.4704 0 .6822.68219.6822 1.78827 0 2.47037L17.5123 42.105c-.6822.6821-1.7883.6821-2.4705 0Z" clip-rule="evenodd"/>
  <path fill="#57585A" fill-rule="evenodd" d="M13.766 90.9989c-.6822-.6821-.6822-1.7882 0-2.4704L47.8855 54.409c.6822-.6822 1.7882-.6822 2.4704 0 .6822.6822.6822 1.7882 0 2.4704L16.2364 90.9989c-.6822.6822-1.7882.6822-2.4704 0Zm24.0215 24.7661c-.6822-.682-.6822-1.788 0-2.471L71.907 79.1748c.6821-.6822 1.7882-.6822 2.4704 0 .6822.6822.6821 1.7883 0 2.4704L40.2579 115.765c-.6822.682-1.7883.682-2.4704 0Zm-24.5528-12.543c-.6822-.682-.6822-1.788 0-2.47l34.1195-34.1195c.6822-.6822 1.7882-.6822 2.4704 0 .6822.6822.6822 1.7883 0 2.4704L15.7051 103.222c-.6822.683-1.7882.683-2.4704 0Zm.5313 10.736c-.6822-.682-.6822-1.788 0-2.47l34.1195-34.12c.6822-.6822 1.7882-.6822 2.4704 0 .6822.6822.6822 1.7882 0 2.4704L16.2364 113.958c-.6822.682-1.7882.682-2.4704 0Zm10.8423 1.807c-.6822-.682-.6822-1.788 0-2.471l34.1195-34.1192c.6821-.6822 1.7882-.6822 2.4704 0 .6822.6822.6822 1.7883 0 2.4704L27.0787 115.765c-.6822.682-1.7883.682-2.4704 0Z" clip-rule="evenodd"/>
  <path fill="#28337C" fill-rule="evenodd" d="M26.4149 42.105c-.6822-.6822-.6822-1.7883 0-2.4705L56.8142 9.23523c.6822-.68218 1.7882-.68218 2.4704 0 .6822.68219.6822 1.78827 0 2.47037L28.8853 42.105c-.6822.6821-1.7882.6821-2.4704 0Zm11.3726 0c-.6822-.6822-.6822-1.7883 0-2.4705L68.1868 9.23523c.6821-.68218 1.7882-.68218 2.4704 0 .6822.68219.6822 1.78827 0 2.47037L40.2579 42.105c-.6822.6821-1.7883.6821-2.4704 0Zm11.374 0c-.6822-.6822-.6822-1.7883 0-2.4705L79.5608 9.23523c.6822-.68218 1.7882-.68218 2.4704 0 .6822.68219.6822 1.78827 0 2.47037L51.6319 42.105c-.6822.6821-1.7882.6821-2.4704 0Zm11.373 0c-.6822-.6822-.6822-1.7883 0-2.4705L90.9338 9.23523c.6822-.68218 1.7883-.68218 2.4704 0 .6822.68219.6822 1.78827 0 2.47037L63.0049 42.105c-.6822.6821-1.7882.6821-2.4704 0Zm11.3731 0c-.6822-.6822-.6822-1.7883 0-2.4705L102.307 9.23523c.682-.68218 1.788-.68218 2.47 0 .682.68219.682 1.78827 0 2.47037L74.378 42.105c-.6822.6821-1.7882.6821-2.4704 0Zm11.373 0c-.6822-.6822-.6822-1.7883 0-2.4705L113.68 9.23523c.682-.68218 1.788-.68218 2.47 0 .683.68219.683 1.78827 0 2.47037L85.751 42.105c-.6822.6821-1.7882.6821-2.4704 0Zm0 12.2234c-.6822-.6822-.6822-1.7882 0-2.4704L113.68 21.4587c.682-.6822 1.788-.6822 2.47 0 .683.6822.683 1.7882 0 2.4704L85.751 54.3284c-.6822.6822-1.7882.6822-2.4704 0Zm0 12.2235c-.6822-.6822-.6822-1.7883 0-2.4705L113.68 33.6821c.682-.6822 1.788-.6822 2.47 0 .683.6822.683 1.7883 0 2.4704L85.751 66.5519c-.6822.6821-1.7882.6821-2.4704 0Zm0 12.2235c-.6822-.6822-.6822-1.7882 0-2.4704L113.68 45.9057c.682-.6822 1.788-.6822 2.47 0 .683.6822.683 1.7882 0 2.4704L85.751 78.7754c-.6822.6822-1.7882.6822-2.4704 0Zm0 12.2235c-.6822-.6821-.6822-1.7882 0-2.4704L113.68 58.1292c.682-.6822 1.788-.6822 2.47 0 .683.6822.683 1.7882 0 2.4704L85.751 90.9989c-.6822.6822-1.7882.6822-2.4704 0Zm0 12.2231c-.6822-.682-.6822-1.788 0-2.47L113.68 70.3527c.682-.6822 1.788-.6822 2.47 0 .683.6822.683 1.7882 0 2.4704L85.751 103.222c-.6822.683-1.7882.683-2.4704 0Zm0 12.224c-.6822-.682-.6822-1.788 0-2.47L113.68 82.5763c.682-.6822 1.788-.6822 2.47 0 .683.6822.683 1.7882 0 2.4704L85.751 115.446c-.6822.682-1.7882.682-2.4704 0Z" clip-rule="evenodd"/>
</svg>
