<svg xmlns="http://www.w3.org/2000/svg" width="33" height="30" fill="none">
  <path fill="#28337C" fill-opacity=".2" d="M12.8869 29.6526c6.9088 0 12.5094-5.6007 12.5094-12.5094 0-6.9088-5.6006-12.50947-12.5094-12.50947C5.97811 4.63373.377441 10.2344.377441 17.1432c0 6.9087 5.600669 12.5094 12.509459 12.5094Z"/>
  <path fill="#28337C" d="m13.0285 26.812-.1587-.2703C10.4462 22.4123 4.00562 13.649 3.94056 13.561l-.0929-.1262 2.19425-2.1686 6.94579 4.8501c4.3733-5.675 8.4533-9.57279 11.1146-11.84897C27.0136 1.77741 28.9086.63114 28.9278.620156l.0431-.025796h3.722l-.3555.316634C23.1935 9.05546 13.2825 26.3657 13.1838 26.5396l-.1553.2724Z"/>
</svg>
